<?xml version="1.0" encoding="iso-8859-1"?>
<!-- Generator: Adobe Illustrator 24.0.2, SVG Export Plug-In . SVG Version: 6.00 Build 0)  -->
<svg version="1.1" id="Layer_1" xmlns="http://www.w3.org/2000/svg" xmlns:xlink="http://www.w3.org/1999/xlink" x="0px" y="0px"	 width="48" height="48" viewBox="0 0 48 48" style="enable-background:new 0 0 48 48;" xml:space="preserve">
<g id="icon-splus-cloud-download">
	<rect id="icon-splus-cloud-download_1_" style="opacity:0;fill:#FFFFFF;" width="48" height="48"/>
	<path style="opacity:0.6;fill:#FFFFFF;" d="M37.477,28H10.79c-3.473,0-6.407-2.951-6.407-6.444c0-3.168,2.413-5.891,5.452-6.371
		C10.313,10.319,14.52,6.5,19.622,6.5c2.94,0,5.727,1.314,7.581,3.507c1.197-1.391,2.955-2.211,4.867-2.211
		c3.533,0,6.407,2.819,6.407,6.283c0,0.394-0.038,0.789-0.113,1.177c3.114,0.43,5.52,3.091,5.52,6.299
		C43.883,25.049,40.949,28,37.477,28z M10.79,17.11c-2.389,0-4.407,2.036-4.407,4.445C6.383,23.965,8.401,26,10.79,26h26.687
		c2.389,0,4.406-2.036,4.406-4.445c0-2.404-1.977-4.359-4.406-4.359l-0.178-0.003c-0.065-0.002-0.127-0.005-0.19,0l-1.682,0.138
		l0.688-1.542c0.237-0.532,0.362-1.124,0.362-1.71c0-2.362-1.978-4.283-4.407-4.283c-1.688,0-3.199,0.923-3.945,2.408l-0.813,1.618
		l-0.937-1.55C24.968,9.946,22.381,8.5,19.622,8.5c-4.318,0-7.832,3.414-7.832,7.61v1H10.79z"/>
	<g>
		<path style="fill:#FFFFFF;" d="M24,34.324c-0.552,0-1-0.447-1-1V21.75c0-0.552,0.448-1,1-1s1,0.448,1,1v11.574
			C25,33.877,24.552,34.324,24,34.324z"/>
		<path style="fill:#FFFFFF;" d="M28.472,34.908L24,41.488l-4.472-6.58H28.472 M30.75,32.908h-13.5
			c-0.825,0-1.121,0.558-0.657,1.241l6.564,9.657c0.232,0.341,0.538,0.512,0.843,0.512c0.306,0,0.611-0.171,0.843-0.512l6.564-9.656
			C31.87,33.467,31.575,32.908,30.75,32.908L30.75,32.908z"/>
	</g>
</g>
</svg>
